<?xml version="1.0" encoding="utf-8"?><!DOCTYPE svg PUBLIC "-//W3C//DTD SVG 1.1//EN" "http://www.w3.org/Graphics/SVG/1.1/DTD/svg11.dtd"><svg xmlns:xlink="http://www.w3.org/1999/xlink" xmlns="http://www.w3.org/2000/svg" id="map" viewBox="0 0 246 246" width="1000" height="1000" data-dot="6"><rect x="0" y="0" height="246" width="246" fill="#ffffff"/><defs/><g fill="#000000"><rect x="24" y="204" width="18" height="18" transform="rotate(-90,33,213)"/><path clip-rule="evenodd" class="svgeye" d="M 12 192v 42h 42v -42zM 18 198h 30v 30h -30z" transform="rotate(-90,33,213)"/><rect x="204" y="24" width="18" height="18" transform="rotate(90,213,33)"/><path clip-rule="evenodd" class="svgeye" d="M 192 12v 42h 42v -42zM 198 18h 30v 30h -30z" transform="rotate(90,213,33)"/><rect x="24" y="24" width="18" height="18" transform="rotate(0,33,33)"/><path clip-rule="evenodd" class="svgeye" d="M 12 12v 42h 42v -42zM 18 18h 30v 30h -30z" transform="rotate(0,33,33)"/><rect x="60" y="12" width="6" height="6" transform="rotate(0,63,15)"/><rect x="78" y="12" width="6" height="6" transform="rotate(0,81,15)"/><rect x="102" y="12" width="6" height="6" transform="rotate(0,105,15)"/><rect x="108" y="12" width="6" height="6" transform="rotate(0,111,15)"/><rect x="120" y="12" width="6" height="6" transform="rotate(0,123,15)"/><rect x="132" y="12" width="6" height="6" transform="rotate(0,135,15)"/><rect x="168" y="12" width="6" height="6" transform="rotate(0,171,15)"/><rect x="72" y="18" width="6" height="6" transform="rotate(0,75,21)"/><rect x="78" y="18" width="6" height="6" transform="rotate(0,81,21)"/><rect x="84" y="18" width="6" height="6" transform="rotate(0,87,21)"/><rect x="90" y="18" width="6" height="6" transform="rotate(0,93,21)"/><rect x="96" y="18" width="6" height="6" transform="rotate(0,99,21)"/><rect x="102" y="18" width="6" height="6" transform="rotate(0,105,21)"/><rect x="126" y="18" width="6" height="6" transform="rotate(0,129,21)"/><rect x="138" y="18" width="6" height="6" transform="rotate(0,141,21)"/><rect x="144" y="18" width="6" height="6" transform="rotate(0,147,21)"/><rect x="150" y="18" width="6" height="6" transform="rotate(0,153,21)"/><rect x="156" y="18" width="6" height="6" transform="rotate(0,159,21)"/><rect x="174" y="18" width="6" height="6" transform="rotate(0,177,21)"/><rect x="66" y="24" width="6" height="6" transform="rotate(0,69,27)"/><rect x="78" y="24" width="6" height="6" transform="rotate(0,81,27)"/><rect x="84" y="24" width="6" height="6" transform="rotate(0,87,27)"/><rect x="96" y="24" width="6" height="6" transform="rotate(0,99,27)"/><rect x="102" y="24" width="6" height="6" transform="rotate(0,105,27)"/><rect x="114" y="24" width="6" height="6" transform="rotate(0,117,27)"/><rect x="126" y="24" width="6" height="6" transform="rotate(0,129,27)"/><rect x="132" y="24" width="6" height="6" transform="rotate(0,135,27)"/><rect x="138" y="24" width="6" height="6" transform="rotate(0,141,27)"/><rect x="144" y="24" width="6" height="6" transform="rotate(0,147,27)"/><rect x="150" y="24" width="6" height="6" transform="rotate(0,153,27)"/><rect x="168" y="24" width="6" height="6" transform="rotate(0,171,27)"/><rect x="174" y="24" width="6" height="6" transform="rotate(0,177,27)"/><rect x="66" y="30" width="6" height="6" transform="rotate(0,69,33)"/><rect x="72" y="30" width="6" height="6" transform="rotate(0,75,33)"/><rect x="78" y="30" width="6" height="6" transform="rotate(0,81,33)"/><rect x="84" y="30" width="6" height="6" transform="rotate(0,87,33)"/><rect x="96" y="30" width="6" height="6" transform="rotate(0,99,33)"/><rect x="108" y="30" width="6" height="6" transform="rotate(0,111,33)"/><rect x="114" y="30" width="6" height="6" transform="rotate(0,117,33)"/><rect x="120" y="30" width="6" height="6" transform="rotate(0,123,33)"/><rect x="126" y="30" width="6" height="6" transform="rotate(0,129,33)"/><rect x="144" y="30" width="6" height="6" transform="rotate(0,147,33)"/><rect x="150" y="30" width="6" height="6" transform="rotate(0,153,33)"/><rect x="156" y="30" width="6" height="6" transform="rotate(0,159,33)"/><rect x="162" y="30" width="6" height="6" transform="rotate(0,165,33)"/><rect x="168" y="30" width="6" height="6" transform="rotate(0,171,33)"/><rect x="60" y="36" width="6" height="6" transform="rotate(0,63,39)"/><rect x="66" y="36" width="6" height="6" transform="rotate(0,69,39)"/><rect x="72" y="36" width="6" height="6" transform="rotate(0,75,39)"/><rect x="78" y="36" width="6" height="6" transform="rotate(0,81,39)"/><rect x="114" y="36" width="6" height="6" transform="rotate(0,117,39)"/><rect x="120" y="36" width="6" height="6" transform="rotate(0,123,39)"/><rect x="132" y="36" width="6" height="6" transform="rotate(0,135,39)"/><rect x="150" y="36" width="6" height="6" transform="rotate(0,153,39)"/><rect x="162" y="36" width="6" height="6" transform="rotate(0,165,39)"/><rect x="60" y="42" width="6" height="6" transform="rotate(0,63,45)"/><rect x="66" y="42" width="6" height="6" transform="rotate(0,69,45)"/><rect x="72" y="42" width="6" height="6" transform="rotate(0,75,45)"/><rect x="78" y="42" width="6" height="6" transform="rotate(0,81,45)"/><rect x="102" y="42" width="6" height="6" transform="rotate(0,105,45)"/><rect x="108" y="42" width="6" height="6" transform="rotate(0,111,45)"/><rect x="114" y="42" width="6" height="6" transform="rotate(0,117,45)"/><rect x="120" y="42" width="6" height="6" transform="rotate(0,123,45)"/><rect x="138" y="42" width="6" height="6" transform="rotate(0,141,45)"/><rect x="156" y="42" width="6" height="6" transform="rotate(0,159,45)"/><rect x="162" y="42" width="6" height="6" transform="rotate(0,165,45)"/><rect x="168" y="42" width="6" height="6" transform="rotate(0,171,45)"/><rect x="174" y="42" width="6" height="6" transform="rotate(0,177,45)"/><rect x="180" y="42" width="6" height="6" transform="rotate(0,183,45)"/><rect x="60" y="48" width="6" height="6" transform="rotate(0,63,51)"/><rect x="72" y="48" width="6" height="6" transform="rotate(0,75,51)"/><rect x="84" y="48" width="6" height="6" transform="rotate(0,87,51)"/><rect x="96" y="48" width="6" height="6" transform="rotate(0,99,51)"/><rect x="108" y="48" width="6" height="6" transform="rotate(0,111,51)"/><rect x="120" y="48" width="6" height="6" transform="rotate(0,123,51)"/><rect x="132" y="48" width="6" height="6" transform="rotate(0,135,51)"/><rect x="144" y="48" width="6" height="6" transform="rotate(0,147,51)"/><rect x="156" y="48" width="6" height="6" transform="rotate(0,159,51)"/><rect x="168" y="48" width="6" height="6" transform="rotate(0,171,51)"/><rect x="180" y="48" width="6" height="6" transform="rotate(0,183,51)"/><rect x="90" y="54" width="6" height="6" transform="rotate(0,93,57)"/><rect x="96" y="54" width="6" height="6" transform="rotate(0,99,57)"/><rect x="114" y="54" width="6" height="6" transform="rotate(0,117,57)"/><rect x="132" y="54" width="6" height="6" transform="rotate(0,135,57)"/><rect x="138" y="54" width="6" height="6" transform="rotate(0,141,57)"/><rect x="144" y="54" width="6" height="6" transform="rotate(0,147,57)"/><rect x="156" y="54" width="6" height="6" transform="rotate(0,159,57)"/><rect x="162" y="54" width="6" height="6" transform="rotate(0,165,57)"/><rect x="180" y="54" width="6" height="6" transform="rotate(0,183,57)"/><rect x="18" y="60" width="6" height="6" transform="rotate(0,21,63)"/><rect x="24" y="60" width="6" height="6" transform="rotate(0,27,63)"/><rect x="30" y="60" width="6" height="6" transform="rotate(0,33,63)"/><rect x="36" y="60" width="6" height="6" transform="rotate(0,39,63)"/><rect x="42" y="60" width="6" height="6" transform="rotate(0,45,63)"/><rect x="48" y="60" width="6" height="6" transform="rotate(0,51,63)"/><rect x="54" y="60" width="6" height="6" transform="rotate(0,57,63)"/><rect x="66" y="60" width="6" height="6" transform="rotate(0,69,63)"/><rect x="78" y="60" width="6" height="6" transform="rotate(0,81,63)"/><rect x="84" y="60" width="6" height="6" transform="rotate(0,87,63)"/><rect x="90" y="60" width="6" height="6" transform="rotate(0,93,63)"/><rect x="114" y="60" width="6" height="6" transform="rotate(0,117,63)"/><rect x="120" y="60" width="6" height="6" transform="rotate(0,123,63)"/><rect x="150" y="60" width="6" height="6" transform="rotate(0,153,63)"/><rect x="156" y="60" width="6" height="6" transform="rotate(0,159,63)"/><rect x="168" y="60" width="6" height="6" transform="rotate(0,171,63)"/><rect x="180" y="60" width="6" height="6" transform="rotate(0,183,63)"/><rect x="198" y="60" width="6" height="6" transform="rotate(0,201,63)"/><rect x="204" y="60" width="6" height="6" transform="rotate(0,207,63)"/><rect x="228" y="60" width="6" height="6" transform="rotate(0,231,63)"/><rect x="12" y="66" width="6" height="6" transform="rotate(0,15,69)"/><rect x="24" y="66" width="6" height="6" transform="rotate(0,27,69)"/><rect x="30" y="66" width="6" height="6" transform="rotate(0,33,69)"/><rect x="36" y="66" width="6" height="6" transform="rotate(0,39,69)"/><rect x="42" y="66" width="6" height="6" transform="rotate(0,45,69)"/><rect x="54" y="66" width="6" height="6" transform="rotate(0,57,69)"/><rect x="60" y="66" width="6" height="6" transform="rotate(0,63,69)"/><rect x="66" y="66" width="6" height="6" transform="rotate(0,69,69)"/><rect x="96" y="66" width="6" height="6" transform="rotate(0,99,69)"/><rect x="114" y="66" width="6" height="6" transform="rotate(0,117,69)"/><rect x="138" y="66" width="6" height="6" transform="rotate(0,141,69)"/><rect x="144" y="66" width="6" height="6" transform="rotate(0,147,69)"/><rect x="150" y="66" width="6" height="6" transform="rotate(0,153,69)"/><rect x="162" y="66" width="6" height="6" transform="rotate(0,165,69)"/><rect x="174" y="66" width="6" height="6" transform="rotate(0,177,69)"/><rect x="186" y="66" width="6" height="6" transform="rotate(0,189,69)"/><rect x="198" y="66" width="6" height="6" transform="rotate(0,201,69)"/><rect x="222" y="66" width="6" height="6" transform="rotate(0,225,69)"/><rect x="18" y="72" width="6" height="6" transform="rotate(0,21,75)"/><rect x="24" y="72" width="6" height="6" transform="rotate(0,27,75)"/><rect x="48" y="72" width="6" height="6" transform="rotate(0,51,75)"/><rect x="60" y="72" width="6" height="6" transform="rotate(0,63,75)"/><rect x="72" y="72" width="6" height="6" transform="rotate(0,75,75)"/><rect x="78" y="72" width="6" height="6" transform="rotate(0,81,75)"/><rect x="84" y="72" width="6" height="6" transform="rotate(0,87,75)"/><rect x="90" y="72" width="6" height="6" transform="rotate(0,93,75)"/><rect x="102" y="72" width="6" height="6" transform="rotate(0,105,75)"/><rect x="108" y="72" width="6" height="6" transform="rotate(0,111,75)"/><rect x="114" y="72" width="6" height="6" transform="rotate(0,117,75)"/><rect x="120" y="72" width="6" height="6" transform="rotate(0,123,75)"/><rect x="126" y="72" width="6" height="6" transform="rotate(0,129,75)"/><rect x="156" y="72" width="6" height="6" transform="rotate(0,159,75)"/><rect x="162" y="72" width="6" height="6" transform="rotate(0,165,75)"/><rect x="168" y="72" width="6" height="6" transform="rotate(0,171,75)"/><rect x="174" y="72" width="6" height="6" transform="rotate(0,177,75)"/><rect x="180" y="72" width="6" height="6" transform="rotate(0,183,75)"/><rect x="192" y="72" width="6" height="6" transform="rotate(0,195,75)"/><rect x="198" y="72" width="6" height="6" transform="rotate(0,201,75)"/><rect x="210" y="72" width="6" height="6" transform="rotate(0,213,75)"/><rect x="222" y="72" width="6" height="6" transform="rotate(0,225,75)"/><rect x="228" y="72" width="6" height="6" transform="rotate(0,231,75)"/><rect x="12" y="78" width="6" height="6" transform="rotate(0,15,81)"/><rect x="24" y="78" width="6" height="6" transform="rotate(0,27,81)"/><rect x="66" y="78" width="6" height="6" transform="rotate(0,69,81)"/><rect x="78" y="78" width="6" height="6" transform="rotate(0,81,81)"/><rect x="90" y="78" width="6" height="6" transform="rotate(0,93,81)"/><rect x="96" y="78" width="6" height="6" transform="rotate(0,99,81)"/><rect x="102" y="78" width="6" height="6" transform="rotate(0,105,81)"/><rect x="108" y="78" width="6" height="6" transform="rotate(0,111,81)"/><rect x="138" y="78" width="6" height="6" transform="rotate(0,141,81)"/><rect x="144" y="78" width="6" height="6" transform="rotate(0,147,81)"/><rect x="150" y="78" width="6" height="6" transform="rotate(0,153,81)"/><rect x="156" y="78" width="6" height="6" transform="rotate(0,159,81)"/><rect x="168" y="78" width="6" height="6" transform="rotate(0,171,81)"/><rect x="174" y="78" width="6" height="6" transform="rotate(0,177,81)"/><rect x="192" y="78" width="6" height="6" transform="rotate(0,195,81)"/><rect x="198" y="78" width="6" height="6" transform="rotate(0,201,81)"/><rect x="210" y="78" width="6" height="6" transform="rotate(0,213,81)"/><rect x="222" y="78" width="6" height="6" transform="rotate(0,225,81)"/><rect x="228" y="78" width="6" height="6" transform="rotate(0,231,81)"/><rect x="12" y="84" width="6" height="6" transform="rotate(0,15,87)"/><rect x="30" y="84" width="6" height="6" transform="rotate(0,33,87)"/><rect x="36" y="84" width="6" height="6" transform="rotate(0,39,87)"/><rect x="42" y="84" width="6" height="6" transform="rotate(0,45,87)"/><rect x="48" y="84" width="6" height="6" transform="rotate(0,51,87)"/><rect x="66" y="84" width="6" height="6" transform="rotate(0,69,87)"/><rect x="72" y="84" width="6" height="6" transform="rotate(0,75,87)"/><rect x="78" y="84" width="6" height="6" transform="rotate(0,81,87)"/><rect x="102" y="84" width="6" height="6" transform="rotate(0,105,87)"/><rect x="108" y="84" width="6" height="6" transform="rotate(0,111,87)"/><rect x="120" y="84" width="6" height="6" transform="rotate(0,123,87)"/><rect x="126" y="84" width="6" height="6" transform="rotate(0,129,87)"/><rect x="132" y="84" width="6" height="6" transform="rotate(0,135,87)"/><rect x="144" y="84" width="6" height="6" transform="rotate(0,147,87)"/><rect x="156" y="84" width="6" height="6" transform="rotate(0,159,87)"/><rect x="162" y="84" width="6" height="6" transform="rotate(0,165,87)"/><rect x="168" y="84" width="6" height="6" transform="rotate(0,171,87)"/><rect x="174" y="84" width="6" height="6" transform="rotate(0,177,87)"/><rect x="186" y="84" width="6" height="6" transform="rotate(0,189,87)"/><rect x="192" y="84" width="6" height="6" transform="rotate(0,195,87)"/><rect x="198" y="84" width="6" height="6" transform="rotate(0,201,87)"/><rect x="204" y="84" width="6" height="6" transform="rotate(0,207,87)"/><rect x="210" y="84" width="6" height="6" transform="rotate(0,213,87)"/><rect x="216" y="84" width="6" height="6" transform="rotate(0,219,87)"/><rect x="228" y="84" width="6" height="6" transform="rotate(0,231,87)"/><rect x="12" y="90" width="6" height="6" transform="rotate(0,15,93)"/><rect x="18" y="90" width="6" height="6" transform="rotate(0,21,93)"/><rect x="36" y="90" width="6" height="6" transform="rotate(0,39,93)"/><rect x="42" y="90" width="6" height="6" transform="rotate(0,45,93)"/><rect x="60" y="90" width="6" height="6" transform="rotate(0,63,93)"/><rect x="84" y="90" width="6" height="6" transform="rotate(0,87,93)"/><rect x="96" y="90" width="6" height="6" transform="rotate(0,99,93)"/><rect x="102" y="90" width="6" height="6" transform="rotate(0,105,93)"/><rect x="114" y="90" width="6" height="6" transform="rotate(0,117,93)"/><rect x="120" y="90" width="6" height="6" transform="rotate(0,123,93)"/><rect x="138" y="90" width="6" height="6" transform="rotate(0,141,93)"/><rect x="150" y="90" width="6" height="6" transform="rotate(0,153,93)"/><rect x="180" y="90" width="6" height="6" transform="rotate(0,183,93)"/><rect x="186" y="90" width="6" height="6" transform="rotate(0,189,93)"/><rect x="198" y="90" width="6" height="6" transform="rotate(0,201,93)"/><rect x="210" y="90" width="6" height="6" transform="rotate(0,213,93)"/><rect x="216" y="90" width="6" height="6" transform="rotate(0,219,93)"/><rect x="222" y="90" width="6" height="6" transform="rotate(0,225,93)"/><rect x="12" y="96" width="6" height="6" transform="rotate(0,15,99)"/><rect x="48" y="96" width="6" height="6" transform="rotate(0,51,99)"/><rect x="84" y="96" width="6" height="6" transform="rotate(0,87,99)"/><rect x="96" y="96" width="6" height="6" transform="rotate(0,99,99)"/><rect x="102" y="96" width="6" height="6" transform="rotate(0,105,99)"/><rect x="114" y="96" width="6" height="6" transform="rotate(0,117,99)"/><rect x="120" y="96" width="6" height="6" transform="rotate(0,123,99)"/><rect x="126" y="96" width="6" height="6" transform="rotate(0,129,99)"/><rect x="138" y="96" width="6" height="6" transform="rotate(0,141,99)"/><rect x="156" y="96" width="6" height="6" transform="rotate(0,159,99)"/><rect x="174" y="96" width="6" height="6" transform="rotate(0,177,99)"/><rect x="180" y="96" width="6" height="6" transform="rotate(0,183,99)"/><rect x="192" y="96" width="6" height="6" transform="rotate(0,195,99)"/><rect x="198" y="96" width="6" height="6" transform="rotate(0,201,99)"/><rect x="204" y="96" width="6" height="6" transform="rotate(0,207,99)"/><rect x="210" y="96" width="6" height="6" transform="rotate(0,213,99)"/><rect x="228" y="96" width="6" height="6" transform="rotate(0,231,99)"/><rect x="24" y="102" width="6" height="6" transform="rotate(0,27,105)"/><rect x="36" y="102" width="6" height="6" transform="rotate(0,39,105)"/><rect x="54" y="102" width="6" height="6" transform="rotate(0,57,105)"/><rect x="60" y="102" width="6" height="6" transform="rotate(0,63,105)"/><rect x="78" y="102" width="6" height="6" transform="rotate(0,81,105)"/><rect x="84" y="102" width="6" height="6" transform="rotate(0,87,105)"/><rect x="90" y="102" width="6" height="6" transform="rotate(0,93,105)"/><rect x="132" y="102" width="6" height="6" transform="rotate(0,135,105)"/><rect x="138" y="102" width="6" height="6" transform="rotate(0,141,105)"/><rect x="144" y="102" width="6" height="6" transform="rotate(0,147,105)"/><rect x="174" y="102" width="6" height="6" transform="rotate(0,177,105)"/><rect x="186" y="102" width="6" height="6" transform="rotate(0,189,105)"/><rect x="192" y="102" width="6" height="6" transform="rotate(0,195,105)"/><rect x="198" y="102" width="6" height="6" transform="rotate(0,201,105)"/><rect x="30" y="108" width="6" height="6" transform="rotate(0,33,111)"/><rect x="36" y="108" width="6" height="6" transform="rotate(0,39,111)"/><rect x="48" y="108" width="6" height="6" transform="rotate(0,51,111)"/><rect x="60" y="108" width="6" height="6" transform="rotate(0,63,111)"/><rect x="66" y="108" width="6" height="6" transform="rotate(0,69,111)"/><rect x="72" y="108" width="6" height="6" transform="rotate(0,75,111)"/><rect x="78" y="108" width="6" height="6" transform="rotate(0,81,111)"/><rect x="90" y="108" width="6" height="6" transform="rotate(0,93,111)"/><rect x="96" y="108" width="6" height="6" transform="rotate(0,99,111)"/><rect x="102" y="108" width="6" height="6" transform="rotate(0,105,111)"/><rect x="108" y="108" width="6" height="6" transform="rotate(0,111,111)"/><rect x="114" y="108" width="6" height="6" transform="rotate(0,117,111)"/><rect x="138" y="108" width="6" height="6" transform="rotate(0,141,111)"/><rect x="162" y="108" width="6" height="6" transform="rotate(0,165,111)"/><rect x="186" y="108" width="6" height="6" transform="rotate(0,189,111)"/><rect x="192" y="108" width="6" height="6" transform="rotate(0,195,111)"/><rect x="198" y="108" width="6" height="6" transform="rotate(0,201,111)"/><rect x="204" y="108" width="6" height="6" transform="rotate(0,207,111)"/><rect x="216" y="108" width="6" height="6" transform="rotate(0,219,111)"/><rect x="222" y="108" width="6" height="6" transform="rotate(0,225,111)"/><rect x="24" y="114" width="6" height="6" transform="rotate(0,27,117)"/><rect x="30" y="114" width="6" height="6" transform="rotate(0,33,117)"/><rect x="66" y="114" width="6" height="6" transform="rotate(0,69,117)"/><rect x="96" y="114" width="6" height="6" transform="rotate(0,99,117)"/><rect x="102" y="114" width="6" height="6" transform="rotate(0,105,117)"/><rect x="108" y="114" width="6" height="6" transform="rotate(0,111,117)"/><rect x="114" y="114" width="6" height="6" transform="rotate(0,117,117)"/><rect x="126" y="114" width="6" height="6" transform="rotate(0,129,117)"/><rect x="132" y="114" width="6" height="6" transform="rotate(0,135,117)"/><rect x="144" y="114" width="6" height="6" transform="rotate(0,147,117)"/><rect x="156" y="114" width="6" height="6" transform="rotate(0,159,117)"/><rect x="162" y="114" width="6" height="6" transform="rotate(0,165,117)"/><rect x="168" y="114" width="6" height="6" transform="rotate(0,171,117)"/><rect x="180" y="114" width="6" height="6" transform="rotate(0,183,117)"/><rect x="198" y="114" width="6" height="6" transform="rotate(0,201,117)"/><rect x="210" y="114" width="6" height="6" transform="rotate(0,213,117)"/><rect x="12" y="120" width="6" height="6" transform="rotate(0,15,123)"/><rect x="18" y="120" width="6" height="6" transform="rotate(0,21,123)"/><rect x="30" y="120" width="6" height="6" transform="rotate(0,33,123)"/><rect x="42" y="120" width="6" height="6" transform="rotate(0,45,123)"/><rect x="48" y="120" width="6" height="6" transform="rotate(0,51,123)"/><rect x="60" y="120" width="6" height="6" transform="rotate(0,63,123)"/><rect x="66" y="120" width="6" height="6" transform="rotate(0,69,123)"/><rect x="72" y="120" width="6" height="6" transform="rotate(0,75,123)"/><rect x="78" y="120" width="6" height="6" transform="rotate(0,81,123)"/><rect x="96" y="120" width="6" height="6" transform="rotate(0,99,123)"/><rect x="102" y="120" width="6" height="6" transform="rotate(0,105,123)"/><rect x="114" y="120" width="6" height="6" transform="rotate(0,117,123)"/><rect x="120" y="120" width="6" height="6" transform="rotate(0,123,123)"/><rect x="132" y="120" width="6" height="6" transform="rotate(0,135,123)"/><rect x="144" y="120" width="6" height="6" transform="rotate(0,147,123)"/><rect x="162" y="120" width="6" height="6" transform="rotate(0,165,123)"/><rect x="168" y="120" width="6" height="6" transform="rotate(0,171,123)"/><rect x="174" y="120" width="6" height="6" transform="rotate(0,177,123)"/><rect x="186" y="120" width="6" height="6" transform="rotate(0,189,123)"/><rect x="192" y="120" width="6" height="6" transform="rotate(0,195,123)"/><rect x="204" y="120" width="6" height="6" transform="rotate(0,207,123)"/><rect x="216" y="120" width="6" height="6" transform="rotate(0,219,123)"/><rect x="222" y="120" width="6" height="6" transform="rotate(0,225,123)"/><rect x="228" y="120" width="6" height="6" transform="rotate(0,231,123)"/><rect x="12" y="126" width="6" height="6" transform="rotate(0,15,129)"/><rect x="24" y="126" width="6" height="6" transform="rotate(0,27,129)"/><rect x="42" y="126" width="6" height="6" transform="rotate(0,45,129)"/><rect x="54" y="126" width="6" height="6" transform="rotate(0,57,129)"/><rect x="66" y="126" width="6" height="6" transform="rotate(0,69,129)"/><rect x="78" y="126" width="6" height="6" transform="rotate(0,81,129)"/><rect x="84" y="126" width="6" height="6" transform="rotate(0,87,129)"/><rect x="96" y="126" width="6" height="6" transform="rotate(0,99,129)"/><rect x="102" y="126" width="6" height="6" transform="rotate(0,105,129)"/><rect x="108" y="126" width="6" height="6" transform="rotate(0,111,129)"/><rect x="126" y="126" width="6" height="6" transform="rotate(0,129,129)"/><rect x="138" y="126" width="6" height="6" transform="rotate(0,141,129)"/><rect x="144" y="126" width="6" height="6" transform="rotate(0,147,129)"/><rect x="156" y="126" width="6" height="6" transform="rotate(0,159,129)"/><rect x="186" y="126" width="6" height="6" transform="rotate(0,189,129)"/><rect x="18" y="132" width="6" height="6" transform="rotate(0,21,135)"/><rect x="30" y="132" width="6" height="6" transform="rotate(0,33,135)"/><rect x="36" y="132" width="6" height="6" transform="rotate(0,39,135)"/><rect x="48" y="132" width="6" height="6" transform="rotate(0,51,135)"/><rect x="54" y="132" width="6" height="6" transform="rotate(0,57,135)"/><rect x="60" y="132" width="6" height="6" transform="rotate(0,63,135)"/><rect x="66" y="132" width="6" height="6" transform="rotate(0,69,135)"/><rect x="72" y="132" width="6" height="6" transform="rotate(0,75,135)"/><rect x="84" y="132" width="6" height="6" transform="rotate(0,87,135)"/><rect x="90" y="132" width="6" height="6" transform="rotate(0,93,135)"/><rect x="96" y="132" width="6" height="6" transform="rotate(0,99,135)"/><rect x="102" y="132" width="6" height="6" transform="rotate(0,105,135)"/><rect x="132" y="132" width="6" height="6" transform="rotate(0,135,135)"/><rect x="144" y="132" width="6" height="6" transform="rotate(0,147,135)"/><rect x="162" y="132" width="6" height="6" transform="rotate(0,165,135)"/><rect x="168" y="132" width="6" height="6" transform="rotate(0,171,135)"/><rect x="192" y="132" width="6" height="6" transform="rotate(0,195,135)"/><rect x="198" y="132" width="6" height="6" transform="rotate(0,201,135)"/><rect x="204" y="132" width="6" height="6" transform="rotate(0,207,135)"/><rect x="216" y="132" width="6" height="6" transform="rotate(0,219,135)"/><rect x="228" y="132" width="6" height="6" transform="rotate(0,231,135)"/><rect x="18" y="138" width="6" height="6" transform="rotate(0,21,141)"/><rect x="30" y="138" width="6" height="6" transform="rotate(0,33,141)"/><rect x="42" y="138" width="6" height="6" transform="rotate(0,45,141)"/><rect x="60" y="138" width="6" height="6" transform="rotate(0,63,141)"/><rect x="66" y="138" width="6" height="6" transform="rotate(0,69,141)"/><rect x="72" y="138" width="6" height="6" transform="rotate(0,75,141)"/><rect x="84" y="138" width="6" height="6" transform="rotate(0,87,141)"/><rect x="90" y="138" width="6" height="6" transform="rotate(0,93,141)"/><rect x="96" y="138" width="6" height="6" transform="rotate(0,99,141)"/><rect x="114" y="138" width="6" height="6" transform="rotate(0,117,141)"/><rect x="126" y="138" width="6" height="6" transform="rotate(0,129,141)"/><rect x="132" y="138" width="6" height="6" transform="rotate(0,135,141)"/><rect x="138" y="138" width="6" height="6" transform="rotate(0,141,141)"/><rect x="150" y="138" width="6" height="6" transform="rotate(0,153,141)"/><rect x="198" y="138" width="6" height="6" transform="rotate(0,201,141)"/><rect x="210" y="138" width="6" height="6" transform="rotate(0,213,141)"/><rect x="12" y="144" width="6" height="6" transform="rotate(0,15,147)"/><rect x="18" y="144" width="6" height="6" transform="rotate(0,21,147)"/><rect x="24" y="144" width="6" height="6" transform="rotate(0,27,147)"/><rect x="42" y="144" width="6" height="6" transform="rotate(0,45,147)"/><rect x="48" y="144" width="6" height="6" transform="rotate(0,51,147)"/><rect x="66" y="144" width="6" height="6" transform="rotate(0,69,147)"/><rect x="84" y="144" width="6" height="6" transform="rotate(0,87,147)"/><rect x="90" y="144" width="6" height="6" transform="rotate(0,93,147)"/><rect x="96" y="144" width="6" height="6" transform="rotate(0,99,147)"/><rect x="108" y="144" width="6" height="6" transform="rotate(0,111,147)"/><rect x="126" y="144" width="6" height="6" transform="rotate(0,129,147)"/><rect x="138" y="144" width="6" height="6" transform="rotate(0,141,147)"/><rect x="144" y="144" width="6" height="6" transform="rotate(0,147,147)"/><rect x="174" y="144" width="6" height="6" transform="rotate(0,177,147)"/><rect x="186" y="144" width="6" height="6" transform="rotate(0,189,147)"/><rect x="192" y="144" width="6" height="6" transform="rotate(0,195,147)"/><rect x="210" y="144" width="6" height="6" transform="rotate(0,213,147)"/><rect x="222" y="144" width="6" height="6" transform="rotate(0,225,147)"/><rect x="228" y="144" width="6" height="6" transform="rotate(0,231,147)"/><rect x="18" y="150" width="6" height="6" transform="rotate(0,21,153)"/><rect x="30" y="150" width="6" height="6" transform="rotate(0,33,153)"/><rect x="42" y="150" width="6" height="6" transform="rotate(0,45,153)"/><rect x="60" y="150" width="6" height="6" transform="rotate(0,63,153)"/><rect x="66" y="150" width="6" height="6" transform="rotate(0,69,153)"/><rect x="72" y="150" width="6" height="6" transform="rotate(0,75,153)"/><rect x="78" y="150" width="6" height="6" transform="rotate(0,81,153)"/><rect x="84" y="150" width="6" height="6" transform="rotate(0,87,153)"/><rect x="90" y="150" width="6" height="6" transform="rotate(0,93,153)"/><rect x="96" y="150" width="6" height="6" transform="rotate(0,99,153)"/><rect x="132" y="150" width="6" height="6" transform="rotate(0,135,153)"/><rect x="138" y="150" width="6" height="6" transform="rotate(0,141,153)"/><rect x="144" y="150" width="6" height="6" transform="rotate(0,147,153)"/><rect x="168" y="150" width="6" height="6" transform="rotate(0,171,153)"/><rect x="192" y="150" width="6" height="6" transform="rotate(0,195,153)"/><rect x="198" y="150" width="6" height="6" transform="rotate(0,201,153)"/><rect x="222" y="150" width="6" height="6" transform="rotate(0,225,153)"/><rect x="228" y="150" width="6" height="6" transform="rotate(0,231,153)"/><rect x="36" y="156" width="6" height="6" transform="rotate(0,39,159)"/><rect x="48" y="156" width="6" height="6" transform="rotate(0,51,159)"/><rect x="60" y="156" width="6" height="6" transform="rotate(0,63,159)"/><rect x="66" y="156" width="6" height="6" transform="rotate(0,69,159)"/><rect x="84" y="156" width="6" height="6" transform="rotate(0,87,159)"/><rect x="90" y="156" width="6" height="6" transform="rotate(0,93,159)"/><rect x="96" y="156" width="6" height="6" transform="rotate(0,99,159)"/><rect x="102" y="156" width="6" height="6" transform="rotate(0,105,159)"/><rect x="114" y="156" width="6" height="6" transform="rotate(0,117,159)"/><rect x="120" y="156" width="6" height="6" transform="rotate(0,123,159)"/><rect x="192" y="156" width="6" height="6" transform="rotate(0,195,159)"/><rect x="204" y="156" width="6" height="6" transform="rotate(0,207,159)"/><rect x="210" y="156" width="6" height="6" transform="rotate(0,213,159)"/><rect x="216" y="156" width="6" height="6" transform="rotate(0,219,159)"/><rect x="222" y="156" width="6" height="6" transform="rotate(0,225,159)"/><rect x="228" y="156" width="6" height="6" transform="rotate(0,231,159)"/><rect x="12" y="162" width="6" height="6" transform="rotate(0,15,165)"/><rect x="30" y="162" width="6" height="6" transform="rotate(0,33,165)"/><rect x="54" y="162" width="6" height="6" transform="rotate(0,57,165)"/><rect x="66" y="162" width="6" height="6" transform="rotate(0,69,165)"/><rect x="72" y="162" width="6" height="6" transform="rotate(0,75,165)"/><rect x="78" y="162" width="6" height="6" transform="rotate(0,81,165)"/><rect x="90" y="162" width="6" height="6" transform="rotate(0,93,165)"/><rect x="96" y="162" width="6" height="6" transform="rotate(0,99,165)"/><rect x="102" y="162" width="6" height="6" transform="rotate(0,105,165)"/><rect x="120" y="162" width="6" height="6" transform="rotate(0,123,165)"/><rect x="132" y="162" width="6" height="6" transform="rotate(0,135,165)"/><rect x="150" y="162" width="6" height="6" transform="rotate(0,153,165)"/><rect x="168" y="162" width="6" height="6" transform="rotate(0,171,165)"/><rect x="174" y="162" width="6" height="6" transform="rotate(0,177,165)"/><rect x="180" y="162" width="6" height="6" transform="rotate(0,183,165)"/><rect x="192" y="162" width="6" height="6" transform="rotate(0,195,165)"/><rect x="198" y="162" width="6" height="6" transform="rotate(0,201,165)"/><rect x="216" y="162" width="6" height="6" transform="rotate(0,219,165)"/><rect x="12" y="168" width="6" height="6" transform="rotate(0,15,171)"/><rect x="24" y="168" width="6" height="6" transform="rotate(0,27,171)"/><rect x="36" y="168" width="6" height="6" transform="rotate(0,39,171)"/><rect x="42" y="168" width="6" height="6" transform="rotate(0,45,171)"/><rect x="48" y="168" width="6" height="6" transform="rotate(0,51,171)"/><rect x="60" y="168" width="6" height="6" transform="rotate(0,63,171)"/><rect x="72" y="168" width="6" height="6" transform="rotate(0,75,171)"/><rect x="84" y="168" width="6" height="6" transform="rotate(0,87,171)"/><rect x="114" y="168" width="6" height="6" transform="rotate(0,117,171)"/><rect x="138" y="168" width="6" height="6" transform="rotate(0,141,171)"/><rect x="144" y="168" width="6" height="6" transform="rotate(0,147,171)"/><rect x="156" y="168" width="6" height="6" transform="rotate(0,159,171)"/><rect x="168" y="168" width="6" height="6" transform="rotate(0,171,171)"/><rect x="192" y="168" width="6" height="6" transform="rotate(0,195,171)"/><rect x="204" y="168" width="6" height="6" transform="rotate(0,207,171)"/><rect x="210" y="168" width="6" height="6" transform="rotate(0,213,171)"/><rect x="216" y="168" width="6" height="6" transform="rotate(0,219,171)"/><rect x="222" y="168" width="6" height="6" transform="rotate(0,225,171)"/><rect x="228" y="168" width="6" height="6" transform="rotate(0,231,171)"/><rect x="12" y="174" width="6" height="6" transform="rotate(0,15,177)"/><rect x="24" y="174" width="6" height="6" transform="rotate(0,27,177)"/><rect x="30" y="174" width="6" height="6" transform="rotate(0,33,177)"/><rect x="60" y="174" width="6" height="6" transform="rotate(0,63,177)"/><rect x="72" y="174" width="6" height="6" transform="rotate(0,75,177)"/><rect x="84" y="174" width="6" height="6" transform="rotate(0,87,177)"/><rect x="90" y="174" width="6" height="6" transform="rotate(0,93,177)"/><rect x="96" y="174" width="6" height="6" transform="rotate(0,99,177)"/><rect x="108" y="174" width="6" height="6" transform="rotate(0,111,177)"/><rect x="114" y="174" width="6" height="6" transform="rotate(0,117,177)"/><rect x="120" y="174" width="6" height="6" transform="rotate(0,123,177)"/><rect x="126" y="174" width="6" height="6" transform="rotate(0,129,177)"/><rect x="132" y="174" width="6" height="6" transform="rotate(0,135,177)"/><rect x="138" y="174" width="6" height="6" transform="rotate(0,141,177)"/><rect x="180" y="174" width="6" height="6" transform="rotate(0,183,177)"/><rect x="186" y="174" width="6" height="6" transform="rotate(0,189,177)"/><rect x="198" y="174" width="6" height="6" transform="rotate(0,201,177)"/><rect x="204" y="174" width="6" height="6" transform="rotate(0,207,177)"/><rect x="12" y="180" width="6" height="6" transform="rotate(0,15,183)"/><rect x="30" y="180" width="6" height="6" transform="rotate(0,33,183)"/><rect x="48" y="180" width="6" height="6" transform="rotate(0,51,183)"/><rect x="54" y="180" width="6" height="6" transform="rotate(0,57,183)"/><rect x="72" y="180" width="6" height="6" transform="rotate(0,75,183)"/><rect x="84" y="180" width="6" height="6" transform="rotate(0,87,183)"/><rect x="114" y="180" width="6" height="6" transform="rotate(0,117,183)"/><rect x="120" y="180" width="6" height="6" transform="rotate(0,123,183)"/><rect x="126" y="180" width="6" height="6" transform="rotate(0,129,183)"/><rect x="144" y="180" width="6" height="6" transform="rotate(0,147,183)"/><rect x="156" y="180" width="6" height="6" transform="rotate(0,159,183)"/><rect x="162" y="180" width="6" height="6" transform="rotate(0,165,183)"/><rect x="180" y="180" width="6" height="6" transform="rotate(0,183,183)"/><rect x="186" y="180" width="6" height="6" transform="rotate(0,189,183)"/><rect x="192" y="180" width="6" height="6" transform="rotate(0,195,183)"/><rect x="198" y="180" width="6" height="6" transform="rotate(0,201,183)"/><rect x="204" y="180" width="6" height="6" transform="rotate(0,207,183)"/><rect x="210" y="180" width="6" height="6" transform="rotate(0,213,183)"/><rect x="216" y="180" width="6" height="6" transform="rotate(0,219,183)"/><rect x="222" y="180" width="6" height="6" transform="rotate(0,225,183)"/><rect x="60" y="186" width="6" height="6" transform="rotate(0,63,189)"/><rect x="66" y="186" width="6" height="6" transform="rotate(0,69,189)"/><rect x="90" y="186" width="6" height="6" transform="rotate(0,93,189)"/><rect x="96" y="186" width="6" height="6" transform="rotate(0,99,189)"/><rect x="102" y="186" width="6" height="6" transform="rotate(0,105,189)"/><rect x="108" y="186" width="6" height="6" transform="rotate(0,111,189)"/><rect x="114" y="186" width="6" height="6" transform="rotate(0,117,189)"/><rect x="132" y="186" width="6" height="6" transform="rotate(0,135,189)"/><rect x="150" y="186" width="6" height="6" transform="rotate(0,153,189)"/><rect x="162" y="186" width="6" height="6" transform="rotate(0,165,189)"/><rect x="168" y="186" width="6" height="6" transform="rotate(0,171,189)"/><rect x="180" y="186" width="6" height="6" transform="rotate(0,183,189)"/><rect x="204" y="186" width="6" height="6" transform="rotate(0,207,189)"/><rect x="60" y="192" width="6" height="6" transform="rotate(0,63,195)"/><rect x="72" y="192" width="6" height="6" transform="rotate(0,75,195)"/><rect x="78" y="192" width="6" height="6" transform="rotate(0,81,195)"/><rect x="90" y="192" width="6" height="6" transform="rotate(0,93,195)"/><rect x="96" y="192" width="6" height="6" transform="rotate(0,99,195)"/><rect x="102" y="192" width="6" height="6" transform="rotate(0,105,195)"/><rect x="114" y="192" width="6" height="6" transform="rotate(0,117,195)"/><rect x="120" y="192" width="6" height="6" transform="rotate(0,123,195)"/><rect x="144" y="192" width="6" height="6" transform="rotate(0,147,195)"/><rect x="180" y="192" width="6" height="6" transform="rotate(0,183,195)"/><rect x="192" y="192" width="6" height="6" transform="rotate(0,195,195)"/><rect x="204" y="192" width="6" height="6" transform="rotate(0,207,195)"/><rect x="210" y="192" width="6" height="6" transform="rotate(0,213,195)"/><rect x="222" y="192" width="6" height="6" transform="rotate(0,225,195)"/><rect x="228" y="192" width="6" height="6" transform="rotate(0,231,195)"/><rect x="60" y="198" width="6" height="6" transform="rotate(0,63,201)"/><rect x="66" y="198" width="6" height="6" transform="rotate(0,69,201)"/><rect x="78" y="198" width="6" height="6" transform="rotate(0,81,201)"/><rect x="120" y="198" width="6" height="6" transform="rotate(0,123,201)"/><rect x="126" y="198" width="6" height="6" transform="rotate(0,129,201)"/><rect x="168" y="198" width="6" height="6" transform="rotate(0,171,201)"/><rect x="180" y="198" width="6" height="6" transform="rotate(0,183,201)"/><rect x="204" y="198" width="6" height="6" transform="rotate(0,207,201)"/><rect x="222" y="198" width="6" height="6" transform="rotate(0,225,201)"/><rect x="228" y="198" width="6" height="6" transform="rotate(0,231,201)"/><rect x="60" y="204" width="6" height="6" transform="rotate(0,63,207)"/><rect x="78" y="204" width="6" height="6" transform="rotate(0,81,207)"/><rect x="84" y="204" width="6" height="6" transform="rotate(0,87,207)"/><rect x="96" y="204" width="6" height="6" transform="rotate(0,99,207)"/><rect x="102" y="204" width="6" height="6" transform="rotate(0,105,207)"/><rect x="114" y="204" width="6" height="6" transform="rotate(0,117,207)"/><rect x="126" y="204" width="6" height="6" transform="rotate(0,129,207)"/><rect x="132" y="204" width="6" height="6" transform="rotate(0,135,207)"/><rect x="138" y="204" width="6" height="6" transform="rotate(0,141,207)"/><rect x="144" y="204" width="6" height="6" transform="rotate(0,147,207)"/><rect x="156" y="204" width="6" height="6" transform="rotate(0,159,207)"/><rect x="162" y="204" width="6" height="6" transform="rotate(0,165,207)"/><rect x="168" y="204" width="6" height="6" transform="rotate(0,171,207)"/><rect x="174" y="204" width="6" height="6" transform="rotate(0,177,207)"/><rect x="180" y="204" width="6" height="6" transform="rotate(0,183,207)"/><rect x="186" y="204" width="6" height="6" transform="rotate(0,189,207)"/><rect x="192" y="204" width="6" height="6" transform="rotate(0,195,207)"/><rect x="198" y="204" width="6" height="6" transform="rotate(0,201,207)"/><rect x="204" y="204" width="6" height="6" transform="rotate(0,207,207)"/><rect x="216" y="204" width="6" height="6" transform="rotate(0,219,207)"/><rect x="228" y="204" width="6" height="6" transform="rotate(0,231,207)"/><rect x="60" y="210" width="6" height="6" transform="rotate(0,63,213)"/><rect x="102" y="210" width="6" height="6" transform="rotate(0,105,213)"/><rect x="120" y="210" width="6" height="6" transform="rotate(0,123,213)"/><rect x="168" y="210" width="6" height="6" transform="rotate(0,171,213)"/><rect x="174" y="210" width="6" height="6" transform="rotate(0,177,213)"/><rect x="180" y="210" width="6" height="6" transform="rotate(0,183,213)"/><rect x="192" y="210" width="6" height="6" transform="rotate(0,195,213)"/><rect x="204" y="210" width="6" height="6" transform="rotate(0,207,213)"/><rect x="222" y="210" width="6" height="6" transform="rotate(0,225,213)"/><rect x="60" y="216" width="6" height="6" transform="rotate(0,63,219)"/><rect x="72" y="216" width="6" height="6" transform="rotate(0,75,219)"/><rect x="90" y="216" width="6" height="6" transform="rotate(0,93,219)"/><rect x="96" y="216" width="6" height="6" transform="rotate(0,99,219)"/><rect x="102" y="216" width="6" height="6" transform="rotate(0,105,219)"/><rect x="114" y="216" width="6" height="6" transform="rotate(0,117,219)"/><rect x="132" y="216" width="6" height="6" transform="rotate(0,135,219)"/><rect x="144" y="216" width="6" height="6" transform="rotate(0,147,219)"/><rect x="150" y="216" width="6" height="6" transform="rotate(0,153,219)"/><rect x="156" y="216" width="6" height="6" transform="rotate(0,159,219)"/><rect x="168" y="216" width="6" height="6" transform="rotate(0,171,219)"/><rect x="180" y="216" width="6" height="6" transform="rotate(0,183,219)"/><rect x="186" y="216" width="6" height="6" transform="rotate(0,189,219)"/><rect x="198" y="216" width="6" height="6" transform="rotate(0,201,219)"/><rect x="228" y="216" width="6" height="6" transform="rotate(0,231,219)"/><rect x="60" y="222" width="6" height="6" transform="rotate(0,63,225)"/><rect x="84" y="222" width="6" height="6" transform="rotate(0,87,225)"/><rect x="96" y="222" width="6" height="6" transform="rotate(0,99,225)"/><rect x="138" y="222" width="6" height="6" transform="rotate(0,141,225)"/><rect x="144" y="222" width="6" height="6" transform="rotate(0,147,225)"/><rect x="150" y="222" width="6" height="6" transform="rotate(0,153,225)"/><rect x="174" y="222" width="6" height="6" transform="rotate(0,177,225)"/><rect x="180" y="222" width="6" height="6" transform="rotate(0,183,225)"/><rect x="198" y="222" width="6" height="6" transform="rotate(0,201,225)"/><rect x="228" y="222" width="6" height="6" transform="rotate(0,231,225)"/><rect x="72" y="228" width="6" height="6" transform="rotate(0,75,231)"/><rect x="78" y="228" width="6" height="6" transform="rotate(0,81,231)"/><rect x="84" y="228" width="6" height="6" transform="rotate(0,87,231)"/><rect x="90" y="228" width="6" height="6" transform="rotate(0,93,231)"/><rect x="96" y="228" width="6" height="6" transform="rotate(0,99,231)"/><rect x="102" y="228" width="6" height="6" transform="rotate(0,105,231)"/><rect x="108" y="228" width="6" height="6" transform="rotate(0,111,231)"/><rect x="132" y="228" width="6" height="6" transform="rotate(0,135,231)"/><rect x="144" y="228" width="6" height="6" transform="rotate(0,147,231)"/><rect x="150" y="228" width="6" height="6" transform="rotate(0,153,231)"/><rect x="156" y="228" width="6" height="6" transform="rotate(0,159,231)"/><rect x="162" y="228" width="6" height="6" transform="rotate(0,165,231)"/><rect x="168" y="228" width="6" height="6" transform="rotate(0,171,231)"/><rect x="186" y="228" width="6" height="6" transform="rotate(0,189,231)"/><rect x="204" y="228" width="6" height="6" transform="rotate(0,207,231)"/><rect x="210" y="228" width="6" height="6" transform="rotate(0,213,231)"/><rect x="216" y="228" width="6" height="6" transform="rotate(0,219,231)"/><rect x="222" y="228" width="6" height="6" transform="rotate(0,225,231)"/><rect x="228" y="228" width="6" height="6" transform="rotate(0,231,231)"/></g></svg>